<!--?xml version="1.0" standalone="no"?-->
              <svg id="sw-js-blob-svg" viewBox="0 0 100 100" xmlns="http://www.w3.org/2000/svg" version="1.1">
                    <defs> 
                        <linearGradient id="sw-gradient" x1="0" x2="1" y1="1" y2="0">
                            <stop id="stop1" stop-color="rgba(169.975, 216.82, 226.367, 1)" offset="0%"></stop>
                            <stop id="stop2" stop-color="rgba(137.078, 246.338, 205.622, 1)" offset="100%"></stop>
                        </linearGradient>
                    </defs>
                <path fill="url(#sw-gradient)" d="M23.6,-28.8C30,-27.9,34.1,-20.2,37,-11.9C39.9,-3.6,41.5,5.2,39.3,13C37.1,20.7,30.9,27.4,23.7,30.8C16.5,34.1,8.3,34.2,-0.7,35.1C-9.6,36,-19.2,37.8,-23.5,33.5C-27.9,29.2,-27,18.9,-27.6,10.5C-28.3,2.1,-30.4,-4.2,-28.4,-8.8C-26.3,-13.5,-20.2,-16.4,-14.8,-17.6C-9.4,-18.7,-4.7,-18.1,2,-20.9C8.6,-23.6,17.3,-29.6,23.6,-28.8Z" width="100%" height="100%" transform="translate(50 50)" stroke-width="0" style="transition: all 0.3s ease 0s;"></path>
              </svg>