<!--?xml version="1.0" standalone="no"?-->
              <svg id="sw-js-blob-svg" viewBox="0 0 100 100" xmlns="http://www.w3.org/2000/svg" version="1.1">
                    <defs> 
                        <linearGradient id="sw-gradient" x1="0" x2="1" y1="1" y2="0">
                            <stop id="stop1" stop-color="rgba(5, 68, 94, 1)" offset="0%"></stop>
                            <stop id="stop2" stop-color="rgba(24, 154, 180, 1)" offset="100%"></stop>
                        </linearGradient>
                    </defs>
                <path fill="url(#sw-gradient)" d="M17.3,-22C20.9,-17.7,21,-10.7,24,-2.9C27,4.9,32.8,13.6,30.1,16.7C27.5,19.7,16.4,17.3,7.6,20.2C-1.3,23.1,-7.9,31.5,-12.4,31.2C-16.9,30.8,-19.2,21.6,-25,13.5C-30.8,5.4,-40,-1.6,-38.4,-6.1C-36.8,-10.5,-24.4,-12.4,-16.2,-15.9C-8,-19.5,-4,-24.7,1.5,-26.4C6.9,-28.2,13.8,-26.4,17.3,-22Z" width="100%" height="100%" transform="translate(50 50)" stroke-width="0" style="transition: all 0.3s ease 0s;" stroke="url(#sw-gradient)"></path>
              </svg>