<?xml version="1.0" standalone="no"?>
<!DOCTYPE svg PUBLIC "-//W3C//DTD SVG 20010904//EN"
 "http://www.w3.org/TR/2001/REC-SVG-20010904/DTD/svg10.dtd">
<svg version="1.0" xmlns="http://www.w3.org/2000/svg"
 width="300.000000pt" height="317.000000pt" viewBox="0 0 300.000000 317.000000"
 preserveAspectRatio="xMidYMid meet">
<metadata>
Created by potrace 1.10, written by Peter Selinger 2001-2011
</metadata>
<g transform="translate(0.000000,317.000000) scale(0.100000,-0.100000)"
fill="#93c47d" stroke="none">
<path d="M5 1585 c0 -875 1 -1231 2 -792 2 439 2 1155 0 1590 -1 436 -2 77 -2
-798z"/>
<path d="M765 2770 l-191 -191 250 -249 250 -249 -121 -125 c-67 -69 -135
-145 -152 -170 -19 -28 -58 -125 -101 -252 -39 -114 -70 -208 -70 -209 0 -7
414 141 447 161 24 14 104 83 177 154 l132 129 249 -250 249 -249 193 192 193
193 -250 250 -250 250 181 180 c193 192 229 242 229 321 0 59 -45 142 -98 178
-33 24 -56 31 -107 34 -98 6 -124 -11 -332 -221 l-183 -183 -247 248 c-136
136 -250 248 -253 248 -3 0 -91 -86 -195 -190z m554 -203 c53 -54 109 -105
124 -114 l29 -14 186 186 c236 237 281 259 391 198 64 -36 93 -80 99 -148 7
-91 -3 -107 -208 -314 -105 -104 -190 -198 -190 -208 0 -9 108 -125 240 -256
132 -132 240 -242 240 -246 0 -10 -335 -341 -345 -341 -5 0 -118 108 -250 240
-133 132 -246 240 -252 240 -6 0 -60 -48 -120 -107 -133 -131 -204 -189 -252
-203 -20 -6 -45 -15 -56 -20 -59 -24 -270 -87 -273 -81 -1 4 14 55 33 112 20
57 37 109 39 114 39 147 48 161 240 358 53 53 96 105 96 114 0 9 -109 126
-242 260 l-242 243 174 174 175 175 134 -132 c74 -73 177 -176 230 -230z"/>
<path d="M828 2713 c-65 -64 -118 -124 -118 -133 0 -18 97 -120 114 -120 7 0
18 6 25 13 11 10 11 8 2 -10 -6 -12 -11 -24 -11 -27 0 -6 95 -102 123 -125 13
-10 20 -11 31 -2 11 9 12 7 9 -11 -3 -17 8 -36 39 -68 75 -78 84 -83 108 -70
20 11 21 10 10 -10 -13 -25 -9 -32 65 -103 37 -35 56 -46 71 -43 18 5 20 2 17
-17 -3 -17 10 -37 57 -85 53 -53 64 -60 81 -51 17 9 19 7 14 -13 -5 -18 6 -35
55 -85 63 -65 77 -72 99 -50 11 10 11 8 1 -12 -12 -23 -8 -28 57 -92 l69 -68
40 31 39 32 -27 -30 c-16 -17 -28 -37 -28 -45 0 -14 96 -119 109 -119 13 0 36
21 147 130 94 93 113 117 108 134 -4 12 -11 24 -17 28 -6 4 -266 261 -577 572
-312 311 -573 566 -580 566 -7 0 -66 -53 -132 -117z m1172 -1176 l-115 -117
-50 50 -50 51 78 76 c74 73 77 77 60 95 -16 18 -19 16 -95 -59 l-78 -77 -59
58 -58 58 40 37 40 38 -20 20 -21 21 -38 -39 -38 -39 -58 57 -58 57 37 38 c32
33 35 39 22 55 -7 10 -15 20 -16 22 -2 3 -21 -13 -43 -34 l-40 -39 -58 57 -57
57 78 78 78 78 -21 19 c-21 19 -21 18 -98 -58 l-78 -77 -57 58 -57 58 39 38
39 38 -21 21 -21 21 -36 -42 -37 -41 -58 59 -59 60 37 38 c37 38 37 39 18 56
-19 17 -21 16 -55 -21 l-35 -38 -60 60 -61 59 77 78 c74 74 76 78 60 96 -17
19 -20 17 -94 -60 l-77 -79 -50 51 -51 50 115 115 115 115 580 -577 580 -578
-115 -118z m-950 819 c0 -2 -8 -10 -17 -17 -16 -13 -17 -12 -4 4 13 16 21 21
21 13z"/>
<path d="M1935 2785 c-37 -10 -60 -25 -97 -63 -26 -28 -48 -59 -48 -68 0 -10
36 -54 80 -97 67 -66 83 -77 102 -71 30 9 84 69 107 117 30 63 5 135 -61 174
-31 18 -39 19 -83 8z m83 -38 c47 -23 65 -93 38 -145 -15 -28 -94 -109 -98
-101 -2 2 -36 39 -77 81 l-73 76 47 43 c73 68 102 77 163 46z"/>
<path d="M1619 2503 c-60 -58 -99 -105 -99 -117 0 -20 152 -176 172 -176 20 0
208 193 208 214 0 21 -149 176 -170 176 -7 0 -57 -44 -111 -97z m191 -5 l74
-79 -95 -95 -95 -95 -77 77 c-42 43 -77 78 -77 79 0 4 186 192 190 192 3 0 39
-35 80 -79z"/>
<path d="M1034 1918 c-99 -100 -102 -104 -88 -126 21 -32 154 -162 167 -162
12 0 195 178 209 203 8 16 -4 32 -74 103 -46 46 -91 84 -98 84 -8 0 -60 -46
-116 -102z m199 4 l77 -77 -98 -98 -97 -97 -78 78 -77 78 92 95 c51 53 95 97
98 97 3 1 40 -33 83 -76z"/>
<path d="M859 1729 c-14 -27 -47 -121 -63 -181 -11 -40 -11 -49 2 -62 13 -13
21 -13 66 5 28 10 59 19 69 19 9 0 17 5 17 11 0 5 4 8 8 5 14 -9 92 35 92 52
0 18 -150 172 -168 172 -6 0 -16 -9 -23 -21z m64 -194 c-65 -22 -119 -41 -119
-40 -1 0 16 52 37 115 21 63 39 117 39 120 0 2 36 -31 80 -75 l80 -80 -117
-40z"/>
<path d="M2258 982 c-24 -15 -25 -19 -12 -37 11 -14 14 -57 14 -177 l0 -158
35 0 35 0 0 104 c0 83 3 106 16 117 26 21 45 -15 44 -81 -2 -86 0 -104 15
-123 13 -18 15 -18 43 -2 28 17 29 19 16 44 -8 15 -14 58 -14 103 0 73 -1 77
-31 102 -35 30 -51 32 -69 11 -20 -24 -26 -18 -22 23 3 37 -14 83 -33 89 -5 1
-22 -5 -37 -15z m42 -61 c0 -22 6 -44 15 -51 14 -12 14 -15 0 -36 -10 -16 -15
-49 -15 -109 0 -48 -4 -84 -9 -81 -4 3 -8 78 -9 166 0 91 4 157 9 154 5 -3 9
-22 9 -43z m101 -69 c18 -16 23 -31 26 -83 1 -35 5 -77 8 -92 3 -20 1 -27 -8
-25 -8 3 -14 35 -17 92 -4 78 -8 89 -30 106 -14 11 -20 20 -14 20 7 0 22 -8
35 -18z"/>
<path d="M398 962 l-37 -27 -1 -162 0 -163 100 0 100 0 0 35 0 35 -65 0 -65 0
0 45 0 45 50 0 50 0 0 36 0 37 -51 -5 -50 -5 3 41 3 41 58 3 57 3 0 34 0 35
-57 0 c-47 -1 -65 -6 -95 -28z m118 -9 c-4 -4 -22 -8 -42 -9 -44 -1 -54 -12
-64 -64 -6 -35 -4 -43 14 -55 11 -8 30 -16 41 -16 20 -1 20 -1 0 -6 -53 -13
-74 -85 -40 -137 14 -21 14 -23 -7 -21 -21 2 -23 7 -25 76 -6 213 -7 201 18
220 23 17 122 28 105 12z m-8 -310 c-10 -2 -26 -2 -35 0 -10 3 -2 5 17 5 19 0
27 -2 18 -5z"/>
<path d="M1462 970 c-12 -10 -28 -20 -35 -23 -9 -3 -7 -10 6 -24 14 -17 17
-41 17 -166 l0 -147 41 0 41 0 -3 145 c-3 152 4 182 36 155 12 -10 15 -39 15
-156 l0 -144 35 0 35 0 0 149 c0 151 6 175 35 151 12 -10 15 -43 15 -156 l0
-144 35 0 35 0 0 153 0 153 -27 25 c-58 52 -60 53 -93 29 l-30 -21 -30 21
c-28 20 -31 20 -55 4 -23 -15 -27 -15 -38 -1 -11 15 -14 14 -35 -3z m238 -23
c43 -33 50 -58 50 -179 0 -67 -4 -119 -10 -123 -6 -4 -11 8 -11 27 -5 102 -3
175 3 190 8 17 -39 78 -60 78 -30 0 -42 -33 -43 -118 -3 -124 -3 -125 -16
-129 -10 -4 -13 22 -13 105 0 107 -1 111 -26 131 -31 24 -16 28 24 7 25 -13
30 -12 52 5 29 22 30 22 50 6z m-174 -7 c10 0 9 -5 -6 -20 -18 -18 -20 -33
-20 -144 0 -73 -4 -127 -10 -131 -6 -4 -10 38 -10 120 0 73 -5 135 -11 147
-12 23 5 42 29 33 8 -3 20 -5 28 -5z m94 -281 c0 -11 -4 -17 -10 -14 -5 3 -10
13 -10 21 0 8 5 14 10 14 6 0 10 -9 10 -21z"/>
<path d="M2079 971 c-19 -16 -22 -22 -11 -32 17 -18 15 -59 -3 -59 -8 0 -15
-9 -15 -20 0 -11 7 -20 15 -20 12 0 15 -15 15 -75 0 -84 14 -123 53 -144 21
-11 28 -11 51 4 l26 17 -30 28 c-28 26 -30 33 -30 99 l0 71 30 0 c27 0 30 3
30 30 0 27 -2 29 -29 24 -26 -6 -28 -3 -34 31 -6 36 -22 65 -37 65 -4 0 -18
-9 -31 -19z m38 -43 c2 -12 10 -30 19 -39 14 -16 14 -20 -1 -43 -24 -35 -17
-146 10 -175 10 -12 15 -24 11 -28 -10 -10 -39 23 -42 49 -1 13 -3 23 -5 23
-1 0 -4 25 -5 55 -11 172 -11 200 4 185 3 -3 7 -15 9 -27z"/>
<path d="M621 865 c-29 -33 -31 -41 -31 -110 0 -69 2 -77 31 -110 36 -41 54
-43 86 -13 24 22 33 19 46 -16 2 -5 15 -1 30 9 21 13 25 21 16 31 -6 8 -11 61
-12 126 -2 109 -3 113 -25 116 -15 2 -25 -3 -30 -18 l-8 -21 -18 20 c-27 30
-50 26 -85 -14z m59 -4 c0 -5 -9 -13 -20 -16 -21 -7 -27 -24 -33 -90 -3 -22
-4 -12 -3 22 2 49 6 66 21 78 23 17 35 19 35 6z m82 -103 c2 -57 3 -104 2
-105 0 -2 -7 3 -16 10 -12 10 -14 26 -9 80 5 50 3 71 -6 79 -10 8 -10 14 -2
24 23 27 28 12 31 -88z m-58 66 c22 -21 22 -117 0 -139 -9 -9 -21 -14 -27 -12
-24 8 -34 97 -17 141 11 30 22 32 44 10z m-64 -135 c0 -6 10 -19 23 -30 12
-10 17 -18 10 -19 -13 0 -53 39 -53 52 0 4 5 8 10 8 6 0 10 -5 10 -11z"/>
<path d="M867 866 c-20 -18 -37 -38 -37 -42 0 -24 44 -76 86 -100 43 -25 45
-28 28 -41 -24 -18 -30 -17 -48 8 -14 21 -15 21 -40 3 -14 -11 -26 -22 -26
-26 0 -14 67 -58 89 -58 12 0 40 17 63 38 55 51 49 79 -27 128 -30 19 -55 39
-55 44 0 20 23 21 43 2 22 -21 22 -21 47 -1 l25 19 -33 30 c-42 39 -70 38
-115 -4z m95 -10 c27 -20 10 -26 -23 -8 -29 16 -31 16 -44 -2 -21 -28 -19 -43
11 -63 66 -46 85 -66 82 -86 -2 -11 -10 -23 -18 -25 -12 -4 -13 -3 -2 10 10
12 8 19 -12 39 -13 13 -35 32 -50 42 -42 29 -49 51 -25 81 22 28 54 33 81 12z
m-64 -204 c2 -7 -2 -10 -12 -6 -9 3 -16 11 -16 16 0 13 23 5 28 -10z"/>
<path d="M1070 884 c-14 -10 -27 -19 -29 -20 -2 -2 2 -11 10 -20 7 -9 14 -47
16 -92 2 -61 7 -80 24 -99 31 -32 57 -38 80 -17 18 17 19 16 19 -23 0 -50 -22
-73 -48 -51 -15 14 -20 14 -44 -2 l-28 -17 28 -25 c47 -44 66 -44 114 1 l43
40 3 168 3 169 -35 0 -36 0 0 -97 c0 -74 -4 -100 -15 -109 -12 -10 -18 -10
-30 0 -11 9 -15 33 -15 90 0 59 -4 83 -17 99 -17 21 -19 21 -43 5z m33 -51 c5
-26 2 -42 -7 -32 -9 11 -15 59 -7 59 5 0 11 -12 14 -27z m127 -122 c0 -122 -3
-151 -16 -162 -13 -11 -14 -9 -9 17 4 16 8 35 11 42 2 7 -3 24 -12 38 -12 17
-13 28 -6 37 6 7 12 49 13 95 5 140 19 90 19 -67z m-120 21 c0 -21 9 -41 25
-57 13 -14 19 -25 11 -25 -27 0 -53 44 -54 95 -1 35 1 46 8 35 5 -8 10 -30 10
-48z m44 -201 c14 -5 16 -10 8 -15 -7 -4 -22 0 -34 8 -24 17 -9 21 26 7z"/>
<path d="M1851 865 c-29 -33 -31 -41 -31 -110 0 -69 2 -77 31 -110 36 -40 58
-44 85 -14 l19 21 17 -22 c18 -22 18 -22 43 -2 22 17 23 21 9 33 -12 10 -15
34 -13 123 l2 111 -27 3 c-21 3 -26 -1 -26 -19 l0 -22 -23 21 c-32 30 -50 28
-86 -13z m35 -20 c-14 -13 -26 -33 -26 -45 0 -11 -4 -20 -10 -20 -5 0 -10 7
-10 15 0 22 41 75 58 75 10 0 6 -8 -12 -25z m103 -75 c1 -50 4 -97 7 -105 7
-18 -12 -20 -23 -2 -4 6 -6 44 -4 83 2 46 -1 74 -9 79 -8 5 -8 10 1 21 22 26
27 14 28 -76z m-51 36 c18 -36 7 -122 -16 -131 -25 -9 -42 22 -42 78 0 83 30
111 58 53z m-78 -77 c0 -32 6 -47 26 -65 18 -17 21 -24 10 -24 -9 0 -23 12
-33 26 -18 28 -27 104 -12 104 5 0 9 -19 9 -41z"/>
<path d="M1550 303 c-6 -32 -16 -73 -20 -92 -5 -19 -7 -37 -5 -40 8 -7 11 0
26 58 18 70 45 84 36 19 -3 -24 -9 -52 -13 -61 -3 -9 -2 -17 4 -17 11 0 34
108 26 122 -4 5 -15 8 -25 5 -22 -6 -22 -6 -9 27 5 15 5 28 0 31 -5 3 -14 -21
-20 -52z"/>
<path d="M1334 276 c-19 -42 -36 -76 -37 -76 -2 0 -4 30 -5 67 -4 106 -16 102
-41 -16 -10 -45 -14 -81 -10 -81 4 0 13 26 19 58 16 83 18 84 19 10 1 -40 5
-68 11 -68 6 0 24 28 40 63 32 70 36 67 16 -10 -8 -29 -10 -53 -5 -53 5 0 11
10 14 23 28 126 31 148 23 153 -5 3 -24 -29 -44 -70z"/>
<path d="M1506 321 c-4 -7 -9 -22 -11 -34 -1 -12 -6 -43 -10 -69 -6 -43 -5
-48 11 -48 12 0 15 3 7 8 -9 5 -9 20 -1 57 6 28 14 52 18 55 4 3 4 14 0 24 -5
14 -9 16 -14 7z"/>
<path d="M1410 284 c-7 -8 -15 -37 -18 -65 l-5 -50 31 3 c29 2 32 6 42 51 5
26 10 54 10 60 0 18 -46 19 -60 1z m40 -27 c0 -34 -23 -77 -42 -77 -7 0 -9 15
-5 40 9 67 47 97 47 37z"/>
</g>
</svg>
