<?xml version="1.0" standalone="no"?>
<svg xmlns:xlink="http://www.w3.org/1999/xlink" id="wave" style="transform:rotate(0deg); transition: 0.3s" viewBox="0 0 1440 490" version="1.1" xmlns="http://www.w3.org/2000/svg"><defs><linearGradient id="sw-gradient-0" x1="0" x2="0" y1="1" y2="0"><stop stop-color="rgba(24, 154, 180, 1)" offset="0%"/><stop stop-color="rgba(212, 241, 244, 1)" offset="100%"/></linearGradient></defs><path style="transform:translate(0, 0px); opacity:1" fill="url(#sw-gradient-0)" d="M0,294L30,285.8C60,278,120,261,180,285.8C240,310,300,376,360,383.8C420,392,480,343,540,285.8C600,229,660,163,720,155.2C780,147,840,196,900,187.8C960,180,1020,114,1080,130.7C1140,147,1200,245,1260,236.8C1320,229,1380,114,1440,114.3C1500,114,1560,229,1620,302.2C1680,376,1740,408,1800,408.3C1860,408,1920,376,1980,326.7C2040,278,2100,212,2160,163.3C2220,114,2280,82,2340,114.3C2400,147,2460,245,2520,310.3C2580,376,2640,408,2700,400.2C2760,392,2820,343,2880,277.7C2940,212,3000,131,3060,147C3120,163,3180,278,3240,334.8C3300,392,3360,392,3420,383.8C3480,376,3540,359,3600,326.7C3660,294,3720,245,3780,236.8C3840,229,3900,261,3960,261.3C4020,261,4080,229,4140,196C4200,163,4260,131,4290,114.3L4320,98L4320,490L4290,490C4260,490,4200,490,4140,490C4080,490,4020,490,3960,490C3900,490,3840,490,3780,490C3720,490,3660,490,3600,490C3540,490,3480,490,3420,490C3360,490,3300,490,3240,490C3180,490,3120,490,3060,490C3000,490,2940,490,2880,490C2820,490,2760,490,2700,490C2640,490,2580,490,2520,490C2460,490,2400,490,2340,490C2280,490,2220,490,2160,490C2100,490,2040,490,1980,490C1920,490,1860,490,1800,490C1740,490,1680,490,1620,490C1560,490,1500,490,1440,490C1380,490,1320,490,1260,490C1200,490,1140,490,1080,490C1020,490,960,490,900,490C840,490,780,490,720,490C660,490,600,490,540,490C480,490,420,490,360,490C300,490,240,490,180,490C120,490,60,490,30,490L0,490Z"/><defs><linearGradient id="sw-gradient-1" x1="0" x2="0" y1="1" y2="0"><stop stop-color="rgba(117, 230, 218, 1)" offset="0%"/><stop stop-color="rgba(5, 68, 94, 1)" offset="100%"/></linearGradient></defs><path style="transform:translate(0, 50px); opacity:0.9" fill="url(#sw-gradient-1)" d="M0,245L30,228.7C60,212,120,180,180,163.3C240,147,300,147,360,196C420,245,480,343,540,375.7C600,408,660,376,720,343C780,310,840,278,900,236.8C960,196,1020,147,1080,171.5C1140,196,1200,294,1260,285.8C1320,278,1380,163,1440,98C1500,33,1560,16,1620,40.8C1680,65,1740,131,1800,187.8C1860,245,1920,294,1980,269.5C2040,245,2100,147,2160,147C2220,147,2280,245,2340,277.7C2400,310,2460,278,2520,228.7C2580,180,2640,114,2700,138.8C2760,163,2820,278,2880,318.5C2940,359,3000,327,3060,326.7C3120,327,3180,359,3240,343C3300,327,3360,261,3420,236.8C3480,212,3540,229,3600,212.3C3660,196,3720,147,3780,122.5C3840,98,3900,98,3960,155.2C4020,212,4080,327,4140,343C4200,359,4260,278,4290,236.8L4320,196L4320,490L4290,490C4260,490,4200,490,4140,490C4080,490,4020,490,3960,490C3900,490,3840,490,3780,490C3720,490,3660,490,3600,490C3540,490,3480,490,3420,490C3360,490,3300,490,3240,490C3180,490,3120,490,3060,490C3000,490,2940,490,2880,490C2820,490,2760,490,2700,490C2640,490,2580,490,2520,490C2460,490,2400,490,2340,490C2280,490,2220,490,2160,490C2100,490,2040,490,1980,490C1920,490,1860,490,1800,490C1740,490,1680,490,1620,490C1560,490,1500,490,1440,490C1380,490,1320,490,1260,490C1200,490,1140,490,1080,490C1020,490,960,490,900,490C840,490,780,490,720,490C660,490,600,490,540,490C480,490,420,490,360,490C300,490,240,490,180,490C120,490,60,490,30,490L0,490Z"/></svg>