<?xml version="1.0" standalone="no"?><svg xmlns="http://www.w3.org/2000/svg" viewBox="0 0 1440 320"><path fill="#189ab4" fill-opacity="1" d="M0,192L30,202.7C60,213,120,235,180,224C240,213,300,171,360,138.7C420,107,480,85,540,96C600,107,660,149,720,154.7C780,160,840,128,900,138.7C960,149,1020,203,1080,197.3C1140,192,1200,128,1260,106.7C1320,85,1380,107,1410,117.3L1440,128L1440,320L1410,320C1380,320,1320,320,1260,320C1200,320,1140,320,1080,320C1020,320,960,320,900,320C840,320,780,320,720,320C660,320,600,320,540,320C480,320,420,320,360,320C300,320,240,320,180,320C120,320,60,320,30,320L0,320Z"></path></svg>