<svg xmlns="http://www.w3.org/2000/svg" version="1.1" xmlns:xlink="http://www.w3.org/1999/xlink" xmlns:svgjs="http://svgjs.com/svgjs" width="1440" height="560" preserveAspectRatio="none" viewBox="0 0 1440 560"><g mask="url(&quot;#SvgjsMask1008&quot;)" fill="none"><rect width="1440" height="560" x="0" y="0" fill="rgba(26, 39, 75, 1)"></rect><path d="M10.24 140C10.24 136.06 0.42 139.7 0 134C-4.7 69.7 -34.23 32.77 0 0C35.77 -34.23 70 0 140 0C210 0 210 0 280 0C350 0 350 0 420 0C451.32 0 456.2 -12.91 482.63 0C526.2 21.28 513.87 53.82 560 68.37C622.55 88.1 630.79 75.97 700 68.57C770.79 61 776.48 63.96 840 38.43C861.8 29.67 848.93 5.96 870.63 0C918.93 -13.26 925.32 0 980 0C1050 0 1050 0 1120 0C1190 0 1190 0 1260 0C1330 0 1330 0 1400 0C1470 0 1505 -35 1540 0C1575 35 1540 70 1540 140C1540 210 1540 210 1540 280C1540 350 1540 350 1540 420C1540 490 1573.7 523.7 1540 560C1508.7 593.7 1474.15 562.91 1410 560C1404.15 559.73 1403.82 553.64 1400 553.64C1397.86 553.64 1401.29 559.85 1398.08 560C1331.29 563.03 1329.04 560 1260 560C1190 560 1141.29 593.87 1120 560C1097.29 523.87 1172 486.17 1172 420C1172 381.83 1154.49 352.29 1120 351.32C1058.49 349.6 1049.23 381.87 980 414.62C976.63 416.21 975.34 416.34 974.81 420C964.84 489.03 995.54 522.05 959 560C928.14 592.05 899.5 560 840 560C770 560 770 560 700 560C630 560 630 560 560 560C492.45 560 487.69 566.61 424.91 560C417.69 559.24 426.65 548.85 420 545.26C354.2 509.78 340.61 477.35 280 481.86C241.64 484.72 260.04 538.81 222.07 560C190.04 577.88 181.03 560 140 560C70 560 35 595 0 560C-35 525 0 490 0 420C0 350 0 350 0 280C0 216.37 -4.54 214.77 0 152.73C0.58 144.77 10.24 145.42 10.24 140" stroke="rgba(51, 121, 194, 0.58)" stroke-width="2"></path><path d="M280 129.23C274.78 129.23 271.57 132.89 269.76 140C252.34 208.28 238.38 212.18 241.54 280C243.5 321.96 247.51 356.87 280 359.55C336.74 364.24 368 278.76 420 294.74C466.34 308.98 435.12 369.84 476.67 420C505.12 454.34 520.43 463.75 560 463.75C589.44 463.75 608.05 450.52 614.69 420C628.05 358.65 617.39 346.76 600 280C590.04 241.76 591.02 211.3 560 210C501.02 207.52 480.96 288.3 420 272.43C346.49 253.3 355.66 206.08 291.05 140C285.66 134.48 285.42 129.23 280 129.23" stroke="rgba(51, 121, 194, 0.58)" stroke-width="2"></path><path d="M1400 146.09C1355.26 146.09 1290 221.52 1290 280C1290 324.29 1351.28 351.63 1400 351.63C1433.3 351.63 1454.04 319.39 1454.04 280C1454.04 216.62 1437.28 146.09 1400 146.09" stroke="rgba(51, 121, 194, 0.58)" stroke-width="2"></path><path d="M140 410.14C133.07 410.14 127.93 414.18 127.93 420C127.93 428.08 132.02 437.95 140 437.95C152.64 437.95 169.17 427.32 169.17 420C169.17 413.42 153.69 410.14 140 410.14" stroke="rgba(51, 121, 194, 0.58)" stroke-width="2"></path><path d="M95.61 140C95.61 103.22 27.19 123.82 0 84C-20.61 53.82 -26.25 15.75 0 0C43.75 -26.25 70 0 140 0C210 0 210 0 280 0C320.52 0 361.05 -9.35 361.05 0C361.05 10.4 314.79 11.92 280 39.49C226.46 81.92 203.45 80.41 184.39 140C164.99 200.67 215.94 216.02 203.08 280C193.74 326.45 175.44 324.23 140 360.85C107.69 394.23 67.59 385.07 67.59 420C67.59 468.49 103.8 473.84 140 527.69C150.86 543.84 161.72 549.63 161.72 560C161.72 565.79 150.86 560 140 560C70 560 35 595 0 560C-35 525 0 490 0 420C0 350 0 350 0 280C0 269.39 -5.84 267.34 0 258.79C41.97 197.34 95.61 190.62 95.61 140" stroke="rgba(51, 121, 194, 0.58)" stroke-width="2"></path><path d="M383.16 140C383.16 104.17 391.59 62.22 420 62.22C463.85 62.22 527.69 108.91 527.69 140C527.69 166.72 469.41 177.84 420 177.84C397.14 177.84 383.16 161.98 383.16 140" stroke="rgba(51, 121, 194, 0.58)" stroke-width="2"></path><path d="M1222 420C1237.86 383.56 1231.52 350 1260 350C1308.34 350 1353.69 368.85 1375.65 420C1398.76 473.85 1385.54 517.15 1350.14 560C1327.72 587.15 1305.07 560 1260 560C1214.3 560 1175.81 586.52 1168.61 560C1156.81 516.52 1192.16 488.56 1222 420" stroke="rgba(51, 121, 194, 0.58)" stroke-width="2"></path><path d="M140 87.5C78.3 96.94 57.06 69.66 0 34C-12.94 25.91 -13.68 3.32 0 0C56.32 -13.68 70 0 140 0C181.18 0 222.35 -17.79 222.35 0C222.35 25.96 189.47 79.94 140 87.5" stroke="rgba(51, 121, 194, 0.58)" stroke-width="2"></path><path d="M926.67 140C926.67 78.84 960.55 0 980 0C998.41 0 1002.4 72.41 1002.4 140C1002.4 159.38 994.82 173.94 980 173.94C956.96 173.94 926.67 165.81 926.67 140" stroke="rgba(51, 121, 194, 0.58)" stroke-width="2"></path><path d="M1120 29.06C1050.58 12.13 980 7.34 980 0C980 -7.19 1050 0 1120 0C1190 0 1190 0 1260 0C1308.28 0 1356.55 -15.35 1356.55 0C1356.55 18.8 1313.05 61.77 1260 68.29C1194.78 76.3 1190.58 46.28 1120 29.06" stroke="rgba(51, 121, 194, 0.58)" stroke-width="2"></path><path d="M77.78 280C77.78 246.96 116.22 200 140 200C159.64 200 164.62 242.27 164.62 280C164.62 298.04 155.83 311.55 140 311.55C112.41 311.55 77.78 302.74 77.78 280" stroke="rgba(51, 121, 194, 0.58)" stroke-width="2"></path><path d="M690.91 280C690.91 267.96 688.69 258.66 700 256.67C763.24 245.54 776.26 244.16 840 253.75C853.76 255.82 855 267.81 855 280C855 288.71 850.19 292.68 840 295.56C772.69 314.56 756.78 329.68 700 323.75C682.23 321.9 690.91 301.5 690.91 280" stroke="rgba(51, 121, 194, 0.58)" stroke-width="2"></path><path d="M0 401.74C1.88 401.74 2.7 411.3 7.24 420C43.98 490.43 84.94 513.93 82.56 560C81.32 583.93 15.31 585.97 0 560C-25.97 515.97 0 490 0 420C0 410.87 -1.74 401.74 0 401.74" stroke="rgba(51, 121, 194, 0.58)" stroke-width="2"></path><path d="M547.72 560C547.72 557.59 553.05 554.12 560 551.25C629.19 522.62 641.97 494.01 700 497C726.97 498.39 730 537.97 730 560C730 569.47 715 560 700 560C630 560 630 560 560 560C553.86 560 547.72 561.96 547.72 560" stroke="rgba(51, 121, 194, 0.58)" stroke-width="2"></path><path d="M1217.22 560C1217.22 519.63 1238.74 450 1260 450C1281.22 450 1302.19 519.5 1302.19 560C1302.19 574.5 1281.1 560 1260 560C1238.61 560 1217.22 574.63 1217.22 560" stroke="rgba(51, 121, 194, 0.58)" stroke-width="2"></path></g><defs><mask id="SvgjsMask1008"><rect width="1440" height="560" fill="#ffffff"></rect></mask></defs></svg>