<?xml version="1.0" standalone="no"?>
<svg xmlns:xlink="http://www.w3.org/1999/xlink" id="wave" style="transform:rotate(0deg); transition: 0.3s" viewBox="0 0 1440 490" version="1.1" xmlns="http://www.w3.org/2000/svg"><defs><linearGradient id="sw-gradient-0" x1="0" x2="0" y1="1" y2="0"><stop stop-color="rgba(150.169, 214.473, 252.671, 1)" offset="0%"/><stop stop-color="rgba(158.399, 240.216, 190.324, 1)" offset="100%"/></linearGradient></defs><path style="transform:translate(0, 0px); opacity:1" fill="url(#sw-gradient-0)" d="M0,245L21.8,212.3C43.6,180,87,114,131,73.5C174.5,33,218,16,262,40.8C305.5,65,349,131,393,163.3C436.4,196,480,196,524,187.8C567.3,180,611,163,655,147C698.2,131,742,114,785,155.2C829.1,196,873,294,916,285.8C960,278,1004,163,1047,122.5C1090.9,82,1135,114,1178,171.5C1221.8,229,1265,310,1309,334.8C1352.7,359,1396,327,1440,310.3C1483.6,294,1527,294,1571,269.5C1614.5,245,1658,196,1702,196C1745.5,196,1789,245,1833,220.5C1876.4,196,1920,98,1964,73.5C2007.3,49,2051,98,2095,114.3C2138.2,131,2182,114,2225,130.7C2269.1,147,2313,196,2356,212.3C2400,229,2444,212,2487,228.7C2530.9,245,2575,294,2618,326.7C2661.8,359,2705,376,2749,343C2792.7,310,2836,229,2880,220.5C2923.6,212,2967,278,3011,285.8C3054.5,294,3098,245,3120,220.5L3141.8,196L3141.8,490L3120,490C3098.2,490,3055,490,3011,490C2967.3,490,2924,490,2880,490C2836.4,490,2793,490,2749,490C2705.5,490,2662,490,2618,490C2574.5,490,2531,490,2487,490C2443.6,490,2400,490,2356,490C2312.7,490,2269,490,2225,490C2181.8,490,2138,490,2095,490C2050.9,490,2007,490,1964,490C1920,490,1876,490,1833,490C1789.1,490,1745,490,1702,490C1658.2,490,1615,490,1571,490C1527.3,490,1484,490,1440,490C1396.4,490,1353,490,1309,490C1265.5,490,1222,490,1178,490C1134.5,490,1091,490,1047,490C1003.6,490,960,490,916,490C872.7,490,829,490,785,490C741.8,490,698,490,655,490C610.9,490,567,490,524,490C480,490,436,490,393,490C349.1,490,305,490,262,490C218.2,490,175,490,131,490C87.3,490,44,490,22,490L0,490Z"/></svg>