<svg xmlns="http://www.w3.org/2000/svg" version="1.1" xmlns:xlink="http://www.w3.org/1999/xlink" xmlns:svgjs="http://svgjs.com/svgjs" width="1440" height="560" preserveAspectRatio="none" viewBox="0 0 1440 560"><g mask="url(&quot;#SvgjsMask1073&quot;)" fill="none"><rect width="1440" height="560" x="0" y="0" fill="rgba(45, 148, 255, 1)"></rect><path d="M0,361.231C74.885,369.776,152.355,375.111,220.833,343.622C294.507,309.744,362.747,254.764,394.132,179.994C425.198,105.984,395.791,24.075,388.519,-55.861C380.798,-140.739,401.85,-235.651,350.156,-303.412C297.948,-371.847,205.219,-397.282,119.822,-408.075C41.958,-417.916,-34.248,-392.825,-106.019,-361.067C-170.673,-332.458,-217.394,-280.848,-271.242,-235.033C-335.83,-180.079,-431.517,-147.081,-453.717,-65.235C-476.005,16.934,-432.414,105.749,-382.356,174.616C-336.896,237.158,-260.141,262.755,-190.657,296.668C-129.112,326.706,-68.042,353.467,0,361.231" fill="#0060c3"></path><path d="M1440 1053.038C1571.819 1067.69 1704.718 1217.1570000000002 1818.032 1148.23 1930.306 1079.935 1851.906 892.518 1902.959 771.4259999999999 1951.667 655.897 2091.946 588.718 2106.434 464.181 2121.928 330.997 2064.902 195.71800000000002 1982.211 90.17099999999999 1897.385-18.100000000000023 1775.3899999999999-94.327 1642.144-128.44000000000005 1511.445-161.90099999999995 1360.4569999999999-170.74199999999996 1246.76-98.11400000000003 1137.657-28.42100000000005 1146.439 134.712 1068.435 238.03699999999998 998.3140000000001 330.919 842.157 356.762 817.492 470.497 792.965 583.594 898.999 679.897 950.091 783.734 999.492 884.134 1014.317 1015.895 1112.374 1069.797 1210.183 1123.563 1329.071 1040.708 1440 1053.038" fill="#96caff"></path></g><defs><mask id="SvgjsMask1073"><rect width="1440" height="560" fill="#ffffff"></rect></mask></defs></svg>