<svg xmlns="http://www.w3.org/2000/svg" version="1.1" xmlns:xlink="http://www.w3.org/1999/xlink" xmlns:svgjs="http://svgjs.com/svgjs" width="1440" height="560" preserveAspectRatio="none" viewBox="0 0 1440 560"><g mask="url(&quot;#SvgjsMask1003&quot;)" fill="none"><rect width="1440" height="560" x="0" y="0" fill="rgba(120, 186, 255, 1)"></rect><path d="M0 0L221.38 0L0 10.35z" fill="rgba(255, 255, 255, .1)"></path><path d="M0 10.35L221.38 0L428.78 0L0 19.64z" fill="rgba(255, 255, 255, .075)"></path><path d="M0 19.64L428.78 0L863.0799999999999 0L0 317.41999999999996z" fill="rgba(255, 255, 255, .05)"></path><path d="M0 317.41999999999996L863.0799999999999 0L1001.5999999999999 0L0 456.46999999999997z" fill="rgba(255, 255, 255, .025)"></path><path d="M1440 560L741.43 560L1440 326.15z" fill="rgba(0, 0, 0, .1)"></path><path d="M1440 326.15L741.43 560L385.69999999999993 560L1440 192.71999999999997z" fill="rgba(0, 0, 0, .075)"></path><path d="M1440 192.72000000000003L385.6999999999998 560L177.03999999999982 560L1440 161.55z" fill="rgba(0, 0, 0, .05)"></path><path d="M1440 161.55L177.03999999999974 560L161.41999999999973 560L1440 53.21000000000001z" fill="rgba(0, 0, 0, .025)"></path></g><defs><mask id="SvgjsMask1003"><rect width="1440" height="560" fill="#ffffff"></rect></mask></defs></svg>