<svg height="100%" width="100%" id="svg" viewBox="0 0 1440 700" xmlns="http://www.w3.org/2000/svg" class="transition duration-300 ease-in-out delay-150"><defs><linearGradient id="gradient"><stop offset="5%" stop-color="#ff690088"></stop><stop offset="95%" stop-color="#eb144c88"></stop></linearGradient></defs><path d="M 0,700 C 0,700 0,233 0,233 C 74.31025641025641,206.67948717948718 148.62051282051283,180.35897435897436 220,188 C 291.37948717948717,195.64102564102564 359.8282051282051,237.24358974358972 442,247 C 524.1717948717949,256.7564102564103 620.0666666666666,234.66666666666669 716,212 C 811.9333333333334,189.33333333333331 907.9051282051282,166.08974358974356 991,173 C 1074.0948717948718,179.91025641025644 1144.3128205128205,216.97435897435898 1217,232 C 1289.6871794871795,247.02564102564102 1364.8435897435897,240.0128205128205 1440,233 C 1440,233 1440,700 1440,700 Z" stroke="none" stroke-width="0" fill="url(#gradient)" class="transition-all duration-300 ease-in-out delay-150"></path><defs><linearGradient id="gradient"><stop offset="5%" stop-color="#ff6900ff"></stop><stop offset="95%" stop-color="#eb144cff"></stop></linearGradient></defs><path d="M 0,700 C 0,700 0,466 0,466 C 99.35897435897436,442.0487179487179 198.71794871794873,418.0974358974359 281,427 C 363.28205128205127,435.9025641025641 428.48717948717945,477.6589743589743 490,472 C 551.5128205128206,466.3410256410257 609.3333333333334,413.2666666666667 681,398 C 752.6666666666666,382.7333333333333 838.1794871794872,405.2743589743589 924,420 C 1009.8205128205128,434.7256410256411 1095.9487179487178,441.63589743589745 1182,448 C 1268.0512820512822,454.36410256410255 1354.025641025641,460.18205128205125 1440,466 C 1440,466 1440,700 1440,700 Z" stroke="none" stroke-width="0" fill="url(#gradient)" class="transition-all duration-300 ease-in-out delay-150"></path></svg>