
<svg height="100%" width="100%" id="svg" viewBox="0 0 1440 600" xmlns="http://www.w3.org/2000/svg" class="transition duration-300 ease-in-out delay-150"><defs><linearGradient id="gradient"><stop offset="5%" stop-color="#f69f9166"></stop><stop offset="95%" stop-color="#ff669966"></stop></linearGradient></defs><path d="M 0,600 C 0,600 0,150 0,150 C 54.17550869404366,166.7127389320508 108.35101738808731,183.4254778641016 157,196 C 205.6489826119127,208.5745221358984 248.77143914169443,217.01082747564436 300,202 C 351.22856085830557,186.98917252435564 410.563226045135,148.531212233321 474,132 C 537.436773954865,115.46878776667899 604.9756566777654,120.86432359107164 654,132 C 703.0243433222346,143.13567640892836 733.5341472438032,160.01149340239238 774,169 C 814.4658527561968,177.98850659760762 864.8877543470219,179.08970279935875 932,170 C 999.1122456529781,160.91029720064125 1082.9148353681096,141.62969540017266 1144,129 C 1205.0851646318904,116.37030459982734 1243.4529041805401,110.39151559995067 1289,115 C 1334.5470958194599,119.60848440004933 1387.27354790973,134.80424220002467 1440,150 C 1440,150 1440,600 1440,600 Z" stroke="none" stroke-width="0" fill="url(#gradient)" class="transition-all duration-300 ease-in-out delay-150"></path><defs><linearGradient id="gradient"><stop offset="5%" stop-color="#f69f9188"></stop><stop offset="95%" stop-color="#ff669988"></stop></linearGradient></defs><path d="M 0,600 C 0,600 0,300 0,300 C 38.59075101738809,309.31059316808484 77.18150203477617,318.62118633616967 133,310 C 188.81849796522383,301.37881366383033 261.86474287828344,274.8258478234061 325,264 C 388.13525712171656,253.17415217659388 441.3595264520902,258.07542237020596 493,275 C 544.6404735479098,291.92457762979404 594.6971513133554,320.87246269577014 639,321 C 683.3028486866446,321.12753730422986 721.8518682944876,292.4347268467135 771,280 C 820.1481317055124,267.5652731532865 879.8953755086942,271.38862991737574 933,290 C 986.1046244913058,308.61137008262426 1032.5666296707361,342.0107534837835 1090,349 C 1147.4333703292639,355.9892465162165 1215.838105808361,336.5683561474904 1276,324 C 1336.161894191639,311.4316438525096 1388.0809470958195,305.71582192625476 1440,300 C 1440,300 1440,600 1440,600 Z" stroke="none" stroke-width="0" fill="url(#gradient)" class="transition-all duration-300 ease-in-out delay-150"></path><defs><linearGradient id="gradient"><stop offset="5%" stop-color="#f69f91ff"></stop><stop offset="95%" stop-color="#ff6699ff"></stop></linearGradient></defs><path d="M 0,600 C 0,600 0,450 0,450 C 66.16278209396965,427.5143174250832 132.3255641879393,405.02863485016644 189,423 C 245.6744358120607,440.97136514983356 292.8605253422124,499.39977802441734 340,500 C 387.1394746577876,500.60022197558266 434.23233444321124,443.3722530521643 489,435 C 543.7676655567888,426.6277469478357 606.2101368849427,467.1112097669257 651,477 C 695.7898631150573,486.8887902330743 722.9271180170181,466.1829078801332 775,447 C 827.0728819829819,427.8170921198668 904.081391046985,410.15715871254156 962,418 C 1019.918608953015,425.84284128745844 1058.7473177950424,459.18845726970034 1102,466 C 1145.2526822049576,472.81154273029966 1192.929337772845,453.089012208657 1250,446 C 1307.070662227155,438.910987791343 1373.5353311135775,444.4554938956715 1440,450 C 1440,450 1440,600 1440,600 Z" stroke="none" stroke-width="0" fill="url(#gradient)" class="transition-all duration-300 ease-in-out delay-150"></path></svg>